<?xml version="1.0" encoding="UTF-8" standalone="no"?>
<!-- Created with Inkscape (http://www.inkscape.org/) -->

<svg
   xmlns:dc="http://purl.org/dc/elements/1.1/"
   xmlns:cc="http://creativecommons.org/ns#"
   xmlns:rdf="http://www.w3.org/1999/02/22-rdf-syntax-ns#"
   xmlns:svg="http://www.w3.org/2000/svg"
   xmlns="http://www.w3.org/2000/svg"
   xmlns:sodipodi="http://sodipodi.sourceforge.net/DTD/sodipodi-0.dtd"
   xmlns:inkscape="http://www.inkscape.org/namespaces/inkscape"
   width="50.978981mm"
   height="57.607227mm"
   viewBox="0 0 50.978981 57.607227"
   version="1.1"
   id="svg8"
   inkscape:version="0.92.3 (2405546, 2018-03-11)"
   sodipodi:docname="ananas.svg">
  <defs
     id="defs2" />
  <sodipodi:namedview
     id="base"
     pagecolor="#ffffff"
     bordercolor="#666666"
     borderopacity="1.0"
     inkscape:pageopacity="0.0"
     inkscape:pageshadow="2"
     inkscape:zoom="2.8"
     inkscape:cx="106.98187"
     inkscape:cy="108.94842"
     inkscape:document-units="mm"
     inkscape:current-layer="layer1"
     showgrid="false"
     inkscape:window-width="1920"
     inkscape:window-height="1017"
     inkscape:window-x="1912"
     inkscape:window-y="-8"
     inkscape:window-maximized="1" />
  <metadata
     id="metadata5">
    <rdf:RDF>
      <cc:Work
         rdf:about="">
        <dc:format>image/svg+xml</dc:format>
        <dc:type
           rdf:resource="http://purl.org/dc/dcmitype/StillImage" />
        <dc:title />
      </cc:Work>
    </rdf:RDF>
  </metadata>
  <g
     inkscape:label="Ebene 1"
     inkscape:groupmode="layer"
     id="layer1"
     transform="translate(-77.356552,-59.629654)">
    <path
       style="fill:none;stroke:#000000;stroke-width:0.26458332px;stroke-linecap:butt;stroke-linejoin:miter;stroke-opacity:1"
       d="m -35.341658,93.286165 c -0.03149,-0.0315 -0.07457,-0.05465 -0.09449,-0.09449 -0.08365,-0.167269 0.140548,-0.03229 -0.0945,-0.188989 -0.0586,-0.03907 -0.130386,-0.05542 -0.188986,-0.09449 -0.111191,-0.07412 -0.176575,-0.203302 -0.283483,-0.283482 -0.05635,-0.04226 -0.132639,-0.05223 -0.188989,-0.09449 -0.07127,-0.05345 -0.125987,-0.125989 -0.188987,-0.188989 -0.315135,-0.315136 -0.06284,-0.06284 -0.377975,-0.377976 -0.063,-0.06299 -0.1126,-0.143146 -0.18899,-0.188986 -0.08541,-0.05125 -0.194392,-0.04996 -0.283482,-0.0945 -0.03984,-0.01992 -0.05743,-0.06978 -0.09449,-0.09449 -0.09455,-0.06304 -0.718502,-0.363926 -0.755952,-0.377976 -0.121602,-0.0456 -0.251984,-0.06299 -0.377976,-0.09449 -0.125992,-0.03149 -0.251984,-0.06299 -0.377978,-0.09449 -0.328279,-0.08207 -0.597406,-0.160027 -0.944938,-0.188987 -0.188336,-0.01569 -0.377979,0 -0.566965,0 -0.157491,0 -0.314982,0 -0.472472,0 -0.913442,0 -1.826885,0 -2.740327,0 -0.535466,0 -1.070933,0 -1.606399,0 -0.157488,0 -0.315524,-0.01307 -0.472469,0 -0.221956,0.01849 -0.439505,0.076 -0.661458,0.09449 -0.156946,0.01307 -0.31804,-0.03088 -0.472472,0 -0.166328,0.03327 -0.305583,0.158649 -0.472469,0.188989 -0.185939,0.03381 -0.378751,-0.01712 -0.566965,0 -0.159949,0.01454 -0.314979,0.06299 -0.472469,0.09449 -0.157491,0.03149 -0.320104,0.0437 -0.472472,0.09449 -0.876107,0.292037 0.08081,0.04832 -0.661458,0.472472 -0.112758,0.06443 -0.2593,0.04175 -0.377976,0.09449 -0.477647,0.212289 -0.376666,0.261758 -0.755952,0.472469 -0.184705,0.102616 -0.382259,0.180869 -0.566965,0.283483 -0.4006,0.222557 -0.844174,0.755954 -1.322917,0.755954 -0.0315,0 0,-0.063 0,-0.0945 0,-0.0315 0,-0.06299 0,-0.09449 0,-0.03149 -0.01407,-0.06632 0,-0.09449 0.01993,-0.03984 0.07458,-0.05465 0.0945,-0.09449 0.0297,-0.05939 -0.0297,-0.318586 0,-0.377976 0.01992,-0.03984 0.07457,-0.05465 0.09449,-0.09449 0.03131,-0.06262 -0.02641,-0.298775 0,-0.377975 0.02227,-0.06682 0.0774,-0.12066 0.09449,-0.18899 0.121019,-0.484089 -0.253119,0.190694 0.188989,-0.472469 0.02339,-0.05849 -0.01236,-0.127219 0,-0.188989 0.01953,-0.09767 0.0575,-0.191002 0.09449,-0.283482 0.05232,-0.130787 0.11652,-0.257186 0.18899,-0.377976 0.05843,-0.09738 0.146806,-0.178036 0.188986,-0.283483 0.02339,-0.05849 -0.02339,-0.130496 0,-0.188986 0.04218,-0.105445 0.13056,-0.186103 0.18899,-0.283483 0.03623,-0.06039 0.05049,-0.133989 0.09449,-0.188989 0.08348,-0.104349 0.197932,-0.180819 0.283482,-0.28348 0.0727,-0.08725 0.122977,-0.191072 0.188987,-0.283482 0.284782,-0.398696 0.338407,-0.435095 0.661458,-0.850448 0.09669,-0.124315 0.179777,-0.259453 0.283483,-0.377976 0.117332,-0.134093 0.259601,-0.244803 0.377976,-0.377976 0.133992,-0.150741 0.245165,-0.320685 0.377978,-0.472471 0.20533,-0.234665 0.44097,-0.440971 0.661458,-0.661459 0.09449,-0.09449 0.182018,-0.19651 0.28348,-0.28348 0.119576,-0.102494 0.258403,-0.18099 0.377979,-0.283482 0.101462,-0.08697 0.180819,-0.197933 0.28348,-0.283483 0.538735,-0.448945 0.02456,0.02646 0.566965,-0.283482 0.136739,-0.07814 0.246938,-0.196123 0.377975,-0.283483 0.0586,-0.03907 0.13039,-0.05542 0.18899,-0.09449 0.13104,-0.08736 0.241236,-0.205342 0.377975,-0.283482 0.22256,-0.12718 0.529728,-0.10415 0.755952,-0.18899 0.106339,-0.03987 0.175744,-0.153076 0.283483,-0.188986 0.181763,-0.06058 0.379931,-0.05293 0.566965,-0.09449 0.09723,-0.02161 0.186852,-0.07034 0.283482,-0.0945 0.155813,-0.03895 0.314979,-0.06299 0.472469,-0.09449 0.157491,-0.03149 0.312844,-0.07676 0.472472,-0.09449 0.125219,-0.01392 0.251984,0 0.377976,0 0.15749,0 0.314978,0 0.472469,0 0.440973,0 0.881946,0 1.322916,0 0.34648,0 0.692957,0 1.039435,0 0.15749,0 0.31873,-0.03417 0.472471,0 0.13751,0.03056 0.241319,0.154826 0.377976,0.188986 0.12223,0.03056 0.252754,-0.01392 0.377976,0 0.159626,0.01774 0.312658,0.07852 0.472469,0.0945 0.15671,0.01566 0.31804,-0.03089 0.472472,0 0.166327,0.03326 0.31306,0.131017 0.472469,0.188987 0.187219,0.06808 0.379748,0.120909 0.566965,0.188989 0.159409,0.05797 0.311552,0.135347 0.472469,0.188987 0.123206,0.04107 0.259302,0.04175 0.377979,0.0945 0.167833,0.07459 0.313004,0.19236 0.472469,0.28348 0.06115,0.03495 0.130389,0.05543 0.188989,0.0945 0.131037,0.08736 0.237111,0.213052 0.377976,0.283482 0.116157,0.05808 0.257394,0.04626 0.377975,0.09449 0.146225,0.05849 0.130276,0.366313 0.377976,0.283483 0.02988,0.01 0.01408,-0.06633 0,-0.0945 -0.01992,-0.03984 -0.07457,-0.05465 -0.09449,-0.09449 -0.01408,-0.02817 0.01408,-0.06632 0,-0.09449 -0.01993,-0.03984 -0.063,-0.06299 -0.0945,-0.09449 -0.063,-0.063 -0.125987,-0.125999 -0.188987,-0.188989 -0.361383,-0.361383 0.268672,0.288594 -0.188989,-0.283483 -0.139134,-0.173918 -0.314978,-0.314981 -0.472469,-0.472469 -0.063,-0.063 -0.139569,-0.114859 -0.188989,-0.188989 -0.07814,-0.117205 -0.116517,-0.257186 -0.188987,-0.377976 -0.02292,-0.03819 -0.06667,-0.05971 -0.0945,-0.09449 -0.05339,-0.06674 -0.332512,-0.482995 -0.472469,-0.566965 -0.08541,-0.05124 -0.194392,-0.04995 -0.283482,-0.09449 -0.08662,-0.04331 -0.267083,-0.357476 -0.283483,-0.377976 -0.05565,-0.06957 -0.125996,-0.125999 -0.188986,-0.188989 -0.157491,-0.157491 -0.314982,-0.314982 -0.472472,-0.47247 -0.063,-0.063 -0.137207,-0.116489 -0.188987,-0.188989 -0.106754,-0.149452 -0.188992,-0.314981 -0.283482,-0.472469 -0.09449,-0.0945 -0.203303,-0.176575 -0.283483,-0.283482 -0.110199,-0.146931 -0.181604,-0.319654 -0.283482,-0.472472 -0.224624,-0.336936 -0.235654,-0.330147 -0.472469,-0.566963 -0.0945,-0.0945 -0.197933,-0.180821 -0.283483,-0.283482 -0.0727,-0.08725 -0.120849,-0.192633 -0.188989,-0.283483 -0.02672,-0.03563 -0.06299,-0.06299 -0.09449,-0.09449 -0.063,-0.063 -0.11486,-0.139569 -0.18899,-0.188989 -0.0262,-0.01746 -0.06461,0.0099 -0.09449,0 -0.06682,-0.02227 -0.122176,-0.07221 -0.188986,-0.09449 -0.08965,-0.02988 -0.193843,0.02988 -0.283483,0 -0.04226,-0.01409 -0.05466,-0.07458 -0.0945,-0.0945 -0.01707,-0.0085 -0.633277,-0.26303 -0.755952,-0.28348 -0.09321,-0.01553 -0.188982,0 -0.283482,0 -0.188987,0 -0.377976,0 -0.566962,0 -0.314982,0 -0.629963,0 -0.944941,0 -0.125992,0 -0.253251,-0.01783 -0.377976,0 -0.0986,0.01408 -0.184883,0.08041 -0.283483,0.09449 -0.124727,0.01781 -0.252756,-0.01392 -0.377975,0 -0.159629,0.01773 -0.312418,0.08116 -0.472472,0.09449 -0.219723,0.01831 -0.440971,0 -0.661458,0 -0.346478,0 -0.692957,0 -1.039435,0 -0.440973,0 -0.881943,0 -1.322916,0 -0.157491,0 -0.314981,0 -0.472469,0 -0.157491,0 -0.316199,-0.01953 -0.472472,0 -0.09883,0.01235 -0.185233,0.07811 -0.283483,0.09449 -0.09321,0.01553 -0.192622,-0.02596 -0.283482,0 -0.135443,0.0387 -0.251984,0.125989 -0.377976,0.188989 -0.063,0.0315 -0.130387,0.05542 -0.188987,0.09449 -0.181989,0.121333 -0.09631,0.240766 -0.188989,0.472472 -0.03309,0.08272 -0.149146,0.109297 -0.188986,0.188987 -0.04455,0.08909 -0.04996,0.194392 -0.0945,0.283482 -0.01992,0.03984 -0.07457,0.05465 -0.09449,0.09449 -0.01408,0.02818 -0.0315,0.0945 0,0.0945 0.17001,0 0.05684,-0.132519 0.09449,-0.188989 0.04942,-0.07413 0.125989,-0.125987 0.188989,-0.188987 0,-0.03149 -0.01408,-0.06632 0,-0.09449 0.01992,-0.03984 0.08041,-0.05223 0.09449,-0.09449 0.01992,-0.05976 -0.01236,-0.127219 0,-0.188989 0.05377,-0.268851 0.09449,-0.251984 0.188989,-0.472469 0.06682,-0.155908 0.122167,-0.316563 0.188987,-0.472469 0.08324,-0.194212 0.180869,-0.38226 0.283483,-0.566965 0.0892,-0.160552 0.201342,-0.308197 0.283482,-0.472472 0.04454,-0.08909 0.04507,-0.197 0.09449,-0.28348 0.07814,-0.136742 0.205343,-0.241236 0.283483,-0.377978 0.04942,-0.08648 0.04325,-0.19807 0.09449,-0.28348 0.04584,-0.0764 0.133329,-0.119419 0.188989,-0.188989 0.141891,-0.177364 0.241695,-0.385258 0.377976,-0.566965 0.02672,-0.03563 0.06299,-0.06299 0.09449,-0.09449 0.15749,-0.15749 0.314981,-0.314981 0.472471,-0.472469 0.063,-0.063 0.135537,-0.117719 0.188987,-0.188989 0.04226,-0.05635 0.04941,-0.134879 0.0945,-0.188989 0.114067,-0.13688 0.251984,-0.251984 0.377976,-0.377976 0.06299,-0.063 0.119416,-0.133337 0.188986,-0.188987 0.08868,-0.07094 0.197263,-0.115079 0.283483,-0.188989 0.232418,-0.199215 0.523533,-0.556736 0.755954,-0.755951 0.08622,-0.07391 0.18899,-0.12599 0.28348,-0.18899 0.593998,-0.395996 -0.05787,0.02165 0.661458,-0.377976 0.160552,-0.08919 0.308197,-0.201342 0.472472,-0.283482 0.248751,-0.12437 0.301868,-0.09449 0.566965,-0.09449 0.28348,0 0.566962,0 0.850445,0 0.881946,0 1.76389,0 2.645833,0 0.62996,0 1.259922,0 1.889882,0 0.314981,0 0.631253,-0.02852 0.944941,0 0.35071,0.03188 0.683416,0.187689 1.039434,0.188989 0.188335,0.01569 0.378751,-0.01712 0.566965,0 0.513662,0.0467 0.511299,0.151447 1.039434,0.28348 0.185872,0.04647 0.38109,0.04803 0.566962,0.0945 0.193265,0.04832 0.376156,0.131746 0.566965,0.188986 0.124394,0.03732 0.256376,0.0489 0.377976,0.0945 0.131895,0.04946 0.246084,0.139527 0.377976,0.188987 0.109829,0.04118 0.534546,0.112839 0.661458,0.188989 0.0764,0.04584 0.1093,0.149147 0.18899,0.188987 0.657345,0.328674 0.14224,-0.01168 0.566965,0.0945 0.263929,0.06598 0.223776,0.21218 0.472469,0.377975 0.08288,0.05525 0.194392,0.04994 0.283482,0.09449 0.03984,0.01992 0.06299,0.06299 0.09449,0.09449 0.362816,0.362805 0.02037,-0.0043 0.377976,0.472472 0.07938,0.105833 0.204113,0.177649 0.283483,0.283482 0.123849,0.165132 0.0937,0.281898 0.188989,0.472469 0.01992,0.03984 0.06299,0.06299 0.09449,0.09449 0.063,0.063 0.14315,0.112599 0.18899,0.188989 0.05124,0.08541 0.0575,0.191002 0.09449,0.283482 0.111355,0.278384 0.280217,0.527624 0.472469,0.755952 0.251985,-0.125992 0.50397,-0.251984 0.755954,-0.377975 0.09449,-0.063 0.181904,-0.1382 0.283483,-0.188989 0.365962,-0.182981 0.230736,-0.03296 0.661458,-0.09449 0.0986,-0.01409 0.191001,-0.0575 0.283482,-0.09449 0.204344,-0.08174 0.516922,-0.305708 0.661458,-0.377976 0.349739,-0.174869 0.324661,-0.02725 0.755953,-0.188988 0.106336,-0.03988 0.177145,-0.149112 0.283482,-0.188988 0.150383,-0.05639 0.315686,-0.05965 0.47247,-0.09449 0.126777,-0.02817 0.251199,-0.06632 0.377976,-0.09449 0.156785,-0.03484 0.318635,-0.04834 0.472471,-0.09449 0.162468,-0.04874 0.306142,-0.155723 0.47247,-0.188988 0.154432,-0.03089 0.315943,0.01739 0.47247,0 0.129075,-0.01434 0.249109,-0.07839 0.377976,-0.09449 0.125019,-0.01563 0.252957,0.01563 0.377976,0 0.128867,-0.01611 0.24911,-0.07839 0.377977,-0.09449 0.250038,-0.03126 0.5065,0.03564 0.755952,0 0.0986,-0.01409 0.185232,-0.07812 0.283482,-0.09449 0.09321,-0.01553 0.188988,0 0.283482,0 0.09449,0 0.188988,0 0.283482,0 0.377977,0 0.755953,0 1.133929,0 0.125992,0 0.251984,0 0.377976,0 0.320745,0 0.551892,-0.0382 0.850447,0.09449 0.167833,0.07459 0.308196,0.201345 0.47247,0.283482 0.151714,0.07586 0.318052,0.118798 0.47247,0.188988 0.192356,0.08743 0.377976,0.188988 0.566964,0.283482 0.125992,0.063 0.258525,0.114331 0.377977,0.188988 0.133551,0.08347 0.249821,0.191943 0.377976,0.283482 0.09241,0.06601 0.1948,0.118043 0.283482,0.188988 0.06957,0.05565 0.119421,0.133334 0.188988,0.188988 0.08868,0.07095 0.203178,0.108684 0.283482,0.188989 0.238406,0.357609 0.108684,0.203177 0.377976,0.47247 0.15749,0.15749 0.329886,0.301368 0.472471,0.47247 0.0727,0.08725 0.118042,0.194801 0.188988,0.283482 0.05565,0.06957 0.125992,0.125992 0.188988,0.188988 0.063,0.09449 0.120847,0.192628 0.188988,0.283482 0.08018,0.106908 0.188988,0.188989 0.283482,0.283483 0.0315,0.0315 0.07457,0.05465 0.09449,0.09449 0.04454,0.08909 0.063,0.188988 0.09449,0.283482 0.0315,0.09449 0.07034,0.18685 0.09449,0.283482 0.02317,0.09269 -0.02678,0.418912 0,0.47247 0.213301,0.426602 0.188988,0.137802 0.188988,0.47247 0,0.0315 0,0.063 0,0.09449 0,0.0315 0.0315,0.09449 0,0.09449 -0.0315,0 0.02227,-0.116766 0,-0.09449 -0.0498,0.0498 -0.02616,0.171906 -0.09449,0.188989 -0.257992,0.0645 -0.311445,-0.191468 -0.47247,-0.283483 -0.147273,-0.08416 -0.307913,-0.147848 -0.47247,-0.188988 -0.09167,-0.02292 -0.190274,0.01553 -0.283482,0 -0.09825,-0.01637 -0.185232,-0.07812 -0.283483,-0.09449 -0.09321,-0.01553 -0.195746,0.03509 -0.283482,0 -0.08272,-0.03309 -0.10627,-0.155901 -0.188988,-0.188988 -0.08773,-0.03509 -0.188988,0 -0.283482,0 -0.063,0 -0.125992,0 -0.188988,0 -0.125992,0 -0.251984,0 -0.377976,0 -0.0315,0 -0.06361,-0.0062 -0.09449,0 -0.482708,0.09654 -0.966755,0.279332 -1.417411,0.47247 -0.06474,0.02774 -0.123594,0.06834 -0.188988,0.09449 -0.184963,0.07399 -0.383861,0.110515 -0.566964,0.188989 -1.159648,0.496991 0.287538,-0.09652 -0.661459,0.377976 -0.178179,0.08909 -0.388784,0.0999 -0.566964,0.188988 -0.101578,0.05079 -0.181904,0.138199 -0.283482,0.188988 -0.228445,0.114222 -0.41925,0.09816 -0.661459,0.188988 -0.131894,0.04946 -0.251984,0.125992 -0.377976,0.188988 -0.063,0.0315 -0.128593,0.05826 -0.188988,0.09449 -0.09738,0.05843 -0.181904,0.138199 -0.283482,0.188988 -0.08909,0.04454 -0.203798,0.03473 -0.283482,0.09449 -0.05634,0.04226 -0.05223,0.132643 -0.09449,0.188988 -0.05345,0.07127 -0.133334,0.119421 -0.188988,0.188988 -0.07095,0.08868 -0.118043,0.194801 -0.188988,0.283483 -0.05565,0.06957 -0.135535,0.117716 -0.188988,0.188988 -0.04226,0.05635 -0.063,0.125992 -0.09449,0.188988 -0.0945,0.125992 -0.18266,0.256989 -0.283483,0.377976 -0.05703,0.06844 -0.13957,0.114861 -0.188988,0.188988 -0.01747,0.02621 0.0189,0.0693 0,0.09449 -0.08018,0.106908 -0.200001,0.179131 -0.283482,0.283482 -0.088,0.109996 -0.10447,0.265286 -0.188988,0.377976 -0.05345,0.07127 -0.125992,0.125993 -0.188988,0.188989 -0.15749,0.15749 -0.31498,0.31498 -0.47247,0.47247 -0.0315,0.0315 -0.063,0.063 -0.09449,0.09449 -0.0315,0.0315 -0.09449,0.04995 -0.09449,0.09449 0,0.0315 0.063,0 0.09449,0 0.09449,0 0.192624,-0.02596 0.283482,0 0.135443,0.0387 0.251984,0.125992 0.377976,0.188988 0.15749,0.0315 0.317521,0.05224 0.47247,0.09449 1.030154,0.280951 0.15953,0.03613 0.944941,0.47247 0.148276,0.08238 0.320755,0.113131 0.47247,0.188988 0.101578,0.05079 0.184878,0.132643 0.283482,0.188988 0.122304,0.06989 0.258524,0.114331 0.377976,0.188989 0.323256,0.202035 0.40376,0.309265 0.661459,0.566964 0.09449,0.09449 0.188988,0.188988 0.283482,0.283482 0.09449,0.09449 0.205808,0.174739 0.283482,0.283482 0.08188,0.114625 0.1191,0.255673 0.188988,0.377976 0.30403,0.532053 0.09242,0.01897 0.377976,0.661459 0.06889,0.155002 0.104832,0.325197 0.188988,0.47247 0.0442,0.07735 0.149146,0.109304 0.188988,0.188988 0.08909,0.17818 0.115003,0.382002 0.188989,0.566964 0.05231,0.130789 0.133499,0.248503 0.188988,0.377976 0.03924,0.09155 0.05952,0.190219 0.09449,0.283483 0.05956,0.158822 0.152192,0.306887 0.188988,0.47247 0.02733,0.122992 -0.04963,0.262171 0,0.377976 0.05264,0.12283 0.230841,0.160652 0.283482,0.283482 0.04963,0.115805 -0.01782,0.253251 0,0.377976 0.01409,0.0986 0.07812,0.185232 0.09449,0.283483 0.08983,0.539001 -0.146383,0.01912 0.09449,0.661458 0.04946,0.131894 0.158431,0.240467 0.188988,0.377976 0.03416,0.15374 -0.01739,0.315943 0,0.47247 0.01434,0.129076 0.07613,0.249412 0.09449,0.377976 0.01336,0.09355 -0.01172,0.189718 0,0.283483 0.01992,0.159368 0.07676,0.312843 0.09449,0.47247 0.01391,0.125221 -0.01782,0.25325 0,0.377976 0.124376,0.87063 0.09449,-0.288096 0.09449,0.566964 0,0.409475 0,0.818949 0,1.228423 0,0.125992 0,0.251984 0,0.377976 0,0.09314 0,0.282132 0,0.188988 0,-0.212362 0.01528,-0.347418 -0.09449,-0.566964 -0.03984,-0.07968 -0.137206,-0.116493 -0.188988,-0.188988 -0.106752,-0.149453 -0.181604,-0.319653 -0.283482,-0.47247 -0.08736,-0.13104 -0.200013,-0.244425 -0.283482,-0.377977 -0.07466,-0.119451 -0.10447,-0.265285 -0.188988,-0.377976 -0.106908,-0.142543 -0.251984,-0.251984 -0.377976,-0.377976 -0.157491,-0.15749 -0.314981,-0.31498 -0.472471,-0.47247 -0.09449,-0.09449 -0.197931,-0.180821 -0.283482,-0.283482 -0.0727,-0.08724 -0.125992,-0.188988 -0.188988,-0.283482 -0.174784,-0.262177 -0.212623,-0.359087 -0.47247,-0.566965 -0.055,-0.044 -0.128594,-0.05826 -0.188988,-0.09449 -0.770809,-0.462485 0.120962,0.0671 -0.472471,-0.377976 -0.05634,-0.04226 -0.132642,-0.05223 -0.188988,-0.09449 -0.214955,-0.161217 -0.16302,-0.21676 -0.377976,-0.377976 -0.05634,-0.04226 -0.125992,-0.063 -0.188988,-0.09449 -0.09449,-0.063 -0.194801,-0.118043 -0.283482,-0.188988 -0.104351,-0.08348 -0.172291,-0.209355 -0.283482,-0.283483 -0.0586,-0.03907 -0.132643,-0.05223 -0.188988,-0.09449 -0.116435,-0.08733 -0.25768,-0.297778 -0.377977,-0.377976 -0.117205,-0.07814 -0.26077,-0.110851 -0.377976,-0.188988 -0.07413,-0.04942 -0.109303,-0.149146 -0.188988,-0.188988 -0.02817,-0.01409 -0.06394,0.0076 -0.09449,0 -0.09663,-0.02416 -0.18685,-0.07034 -0.283482,-0.09449 -0.06112,-0.01528 -0.129225,0.01992 -0.188988,0 -0.06682,-0.02227 -0.122171,-0.07222 -0.188988,-0.09449 -0.05502,-0.01834 -0.501946,0 -0.566964,0"
       id="path854"
       inkscape:connector-curvature="0" />
    <path
       style="fill:none;stroke:#000000;stroke-width:0.26458332px;stroke-linecap:butt;stroke-linejoin:miter;stroke-opacity:1"
       d="m -39.121465,89.222956 c -0.45766,0.22883 -0.278371,0.08938 -0.566962,0.377976 -0.0315,0.0315 -0.063,0.063 -0.0945,0.09449 -0.0315,0.0315 -0.07457,0.05465 -0.09449,0.0945 -0.04455,0.08909 -0.03924,0.200605 -0.09449,0.283483 -0.141446,0.212166 -0.406154,0.36595 -0.566965,0.566962 -0.14189,0.177364 -0.236085,0.389602 -0.377976,0.566965 -0.05566,0.06957 -0.125991,0.125992 -0.188989,0.188989 -0.157488,0.157488 -0.329885,0.301369 -0.472469,0.472469 -0.0727,0.08724 -0.118044,0.1948 -0.188989,0.283483 -0.05565,0.06957 -0.125992,0.125992 -0.188987,0.188987 -0.063,0.09449 -0.120848,0.192629 -0.188989,0.283482 -0.02672,0.03564 -0.06978,0.05743 -0.09449,0.0945 -0.03907,0.0586 -0.05826,0.128593 -0.09449,0.188987 -0.167241,0.27873 -0.22061,0.252597 -0.283483,0.566965 -0.05144,0.257214 0.101259,0.178839 -0.0945,0.472469 -0.07413,0.111191 -0.230838,0.160652 -0.28348,0.283482 -0.04963,0.115806 0.01564,0.252958 0,0.377976 -0.07829,0.626271 -0.08439,0.138451 -0.188989,0.661458 -0.09449,0.472472 0.188989,-0.188986 0,0.566965 -0.03416,0.136658 -0.144444,0.24434 -0.188989,0.377976 -0.01992,0.05976 0,0.125992 0,0.188989 0,0.283483 0,0.566963 0,0.850445 0,0.661459 0,1.322917 0,1.984378 0,1.070928 0,2.141858 0,3.212798 0,0.31499 0,0.62997 0,0.94495 0,0.0945 -0.02291,0.19181 0,0.28348 0.04114,0.16455 0.147849,0.30792 0.188989,0.47247 0.05402,0.21608 0.0305,0.44813 0.09449,0.66146 0.03263,0.10878 0.149114,0.17715 0.18899,0.28348 0.112786,0.30077 0.09669,0.63728 0.188986,0.94495 0.04874,0.16246 0.125995,0.31497 0.188989,0.47246 0.150186,0.37547 0.188802,0.50994 0.377976,0.85045 0.0892,0.16055 0.188989,0.31498 0.283483,0.47247 0.09449,0.15749 0.170725,0.3275 0.283482,0.47247 0.109392,0.14065 0.260644,0.24389 0.377976,0.37798 0.103709,0.11852 0.186793,0.25366 0.283482,0.37797 0.123823,0.1592 0.256964,0.31113 0.377976,0.47247 0.161931,0.21591 0.339077,0.54253 0.472469,0.75596 0.06019,0.0963 0.115081,0.19725 0.18899,0.28348 0.115959,0.13528 0.262019,0.24269 0.377975,0.37798 0.07391,0.0862 0.115081,0.19725 0.18899,0.28348 0.115956,0.13527 0.251984,0.25198 0.377975,0.37797 0.125992,0.126 0.242692,0.26202 0.377976,0.37797 0.116258,0.0996 0.703676,0.43981 0.755952,0.47248 0.299839,0.18739 0.406786,0.29788 0.755954,0.47247 0.151715,0.0759 0.315894,0.12375 0.472469,0.18899 0.22143,0.0923 0.440029,0.19122 0.661459,0.28348 0.156575,0.0652 0.318053,0.11879 0.472469,0.18899 0.192357,0.0874 0.370781,0.20501 0.566965,0.28348 0.120581,0.0482 0.253103,0.0588 0.377976,0.0945 0.09577,0.0274 0.188989,0.063 0.283482,0.0945 0.188989,0.063 0.382003,0.115 0.566965,0.189 0.130789,0.0523 0.243054,0.14851 0.377976,0.18898 0.36703,0.11011 0.764241,0.0882 1.133927,0.18899 0.425546,0.11606 0.583896,0.3079 1.039437,0.37797 0.217921,0.0335 0.440971,0 0.661458,0 0.377976,0 0.755952,0 1.133928,0 1.196925,0 2.393849,0 3.590774,0 0.283482,0 0.566965,0 0.850445,0 0.125994,0 0.262173,0.0496 0.377978,0 0.122828,-0.0526 0.174739,-0.2058 0.28348,-0.28347 0.651232,-0.46517 0.09648,0.0463 0.755954,-0.28349 0.242441,-0.12122 0.472332,-0.37784 0.661459,-0.56696 0.09449,-0.0945 0.196514,-0.18202 0.283482,-0.28348 0.102492,-0.11958 0.180989,-0.2584 0.28348,-0.37798 0.799777,-0.93307 -0.356375,0.6269 0.566965,-0.85044 0.04722,-0.0756 0.143153,-0.1126 0.188989,-0.18899 0.05125,-0.0854 0.04995,-0.19439 0.09449,-0.28348 0.08214,-0.16428 0.218993,-0.30051 0.283482,-0.47247 0.03318,-0.0885 -0.01553,-0.19028 0,-0.28349 0.01638,-0.0983 0.08041,-0.18487 0.09449,-0.28348 0.01783,-0.12472 -0.0362,-0.2573 0,-0.37798 0.06072,-0.20238 0.216664,-0.36651 0.283482,-0.56696 0.02988,-0.0896 0,-0.18899 0,-0.28348 0,-0.15749 0,-0.31498 0,-0.47247 0,-0.15749 -0.01738,-0.31594 0,-0.47247 0.01434,-0.12908 0.07613,-0.24941 0.09449,-0.37798 0.01336,-0.0935 0,-0.18899 0,-0.28348 0,-0.40947 0,-0.81895 0,-1.22842 0,-0.59846 0,-1.19693 0,-1.79539 0,-0.18899 0,-0.37797 0,-0.56696 0,-0.063 0.01037,-0.12685 0,-0.18899 -0.02135,-0.1281 -0.07838,-0.24911 -0.09449,-0.37798 -0.01564,-0.12502 0,-0.25198 0,-0.37797 0,-0.34648 0,-0.69296 0,-1.03945 0,-0.12599 0,-0.25198 0,-0.37797 0,-0.063 0.01236,-0.12722 0,-0.18899 -0.01953,-0.0977 -0.08214,-0.18465 -0.09449,-0.28349 -0.01953,-0.15627 0,-0.31498 0,-0.47247 0,-0.063 0.01236,-0.12721 0,-0.18899 -0.01953,-0.0977 -0.063,-0.18899 -0.0945,-0.28348 0,-0.12599 0.01783,-0.25325 0,-0.37798 -0.01408,-0.0986 -0.08041,-0.18488 -0.09449,-0.283478 -0.01781,-0.12473 0.02733,-0.25498 0,-0.37798 -0.0368,-0.16558 -0.135348,-0.31155 -0.188987,-0.47247 -0.0099,-0.0299 0,-0.063 0,-0.0945 0,-0.125988 0.01564,-0.252954 0,-0.377972 -0.01611,-0.128868 -0.07314,-0.249875 -0.0945,-0.377979 -0.01035,-0.06214 0,-0.125991 0,-0.188986 0,-0.09449 0,-0.188989 0,-0.283483 0,-0.188989 0,-0.377975 0,-0.566965 0,-0.125992 0.02072,-0.253698 0,-0.377975 -0.01159,-0.06947 -0.063,-0.125992 -0.09449,-0.188987 -0.0315,-0.0945 -0.08041,-0.18488 -0.09449,-0.283483 -0.01781,-0.124727 0.03984,-0.25845 0,-0.377975 -0.02817,-0.08452 -0.143152,-0.112596 -0.188989,-0.18899 -0.205541,-0.342569 -0.03686,-0.184306 -0.09449,-0.472469 -0.01953,-0.09767 -0.0575,-0.191002 -0.09449,-0.283482 -0.07726,-0.193138 -0.190421,-0.380839 -0.283483,-0.566965 -0.0315,-0.063 -0.07741,-0.120661 -0.0945,-0.18899 0,-0.626792 0.04454,0.133636 -0.09449,-0.283479 -0.03984,-0.119529 0.03056,-0.255747 0,-0.377979 -0.06462,-0.258492 -0.132871,-0.152059 -0.283483,-0.377976 -0.0173,-0.02595 0.0068,-0.357581 0,-0.377975 -0.01408,-0.04226 -0.07457,-0.05465 -0.09449,-0.09449 -0.01408,-0.02817 0.0099,-0.06461 0,-0.09449 -0.04454,-0.133636 -0.144444,-0.244343 -0.188989,-0.377978 -0.0099,-0.02988 0.01746,-0.06829 0,-0.09449 -0.04942,-0.07412 -0.125992,-0.125992 -0.188987,-0.188986 -0.148741,-0.148741 -0.116602,-0.08843 -0.188989,-0.377979 -0.0076,-0.03056 0,-0.06299 0,-0.09449 -0.0315,-0.0315 -0.08041,-0.05223 -0.09449,-0.09449 -0.01992,-0.05976 0.01527,-0.127874 0,-0.18899 -0.01709,-0.06833 -0.125992,-0.251983 -0.09449,-0.188986 0.22048,0.440976 0.440963,0.881949 0.661446,1.322924"
       id="path856"
       inkscape:connector-curvature="0" />
    <path
       style="fill:#00e13c;fill-opacity:1;stroke:none;stroke-width:1;stroke-linecap:butt;stroke-linejoin:miter;stroke-miterlimit:4;stroke-dasharray:none;stroke-opacity:1"
       d="m 111.12496,81.033909 c 1.71051,0.58193 6.25692,1.540389 10.4042,4.170585 -2.51939,-6.178542 -5.12567,-11.395273 -12.19956,-11.966352 2.03563,-3.154953 9.69422,-4.635271 15.5116,-4.941368 -5.42838,-7.128224 -15.88504,-6.514816 -21.26428,-2.666794 -4.159019,-7.730715 -19.580837,-7.542474 -21.556087,2.032995 7.771553,-3.39437 12.601782,-0.751285 15.591524,5.669642 -8.242703,-4.330848 -14.593008,-2.156579 -18.804308,7.370517 5.685391,-4.040259 10.473089,-5.96327 16.300222,-1.039459"
       id="path858"
       inkscape:connector-curvature="0"
       sodipodi:nodetypes="ccccccccc" />
    <path
       style="fill:#ffff00;fill-opacity:1;stroke:none;stroke-width:1;stroke-linecap:butt;stroke-linejoin:round;stroke-miterlimit:4;stroke-dasharray:none;stroke-opacity:1"
       d="m 114.1488,92.278642 c 0,9.315488 -5.16138,12.142488 -11.52827,12.142488 -6.366891,0 -11.528275,-2.827 -11.528274,-12.142488 0,-9.31549 5.161384,-16.867186 11.528274,-16.867187 6.36689,0 11.52827,7.551697 11.52827,16.867187 z"
       id="path860"
       inkscape:connector-curvature="0"
       sodipodi:nodetypes="sssss" />
    <path
       style="fill:none;stroke:#ffbe03;stroke-width:1;stroke-linecap:butt;stroke-linejoin:miter;stroke-miterlimit:4;stroke-dasharray:none;stroke-opacity:1"
       d="m 94.152236,80.65093 c 6.162984,3.273471 10.918674,1.90861 16.904794,-0.300675"
       id="path863"
       inkscape:connector-curvature="0"
       sodipodi:nodetypes="cc" />
    <path
       style="fill:none;stroke:#f9ba0a;stroke-width:1;stroke-linecap:butt;stroke-linejoin:miter;stroke-miterlimit:4;stroke-dasharray:none;stroke-opacity:1"
       d="m 92.178429,85.073696 c 6.214527,2.706517 14.831121,1.902071 20.780201,0.100229"
       id="path863-4"
       inkscape:connector-curvature="0"
       sodipodi:nodetypes="cc" />
    <path
       style="fill:none;stroke:#f9ba0a;stroke-width:1;stroke-linecap:butt;stroke-linejoin:miter;stroke-miterlimit:4;stroke-dasharray:none;stroke-opacity:1"
       d="m 91.306446,89.81787 c 6.078878,2.163917 16.770844,2.24427 22.851534,0.968855"
       id="path863-4-9"
       inkscape:connector-curvature="0"
       sodipodi:nodetypes="cc" />
    <path
       style="fill:none;stroke:#ffbe03;stroke-width:1;stroke-linecap:butt;stroke-linejoin:miter;stroke-miterlimit:4;stroke-dasharray:none;stroke-opacity:1"
       d="m 91.273039,95.330305 c 6.121084,2.17699 16.499551,1.67914 22.617671,0.83522"
       id="path863-4-9-8"
       inkscape:connector-curvature="0"
       sodipodi:nodetypes="cc" />
    <path
       style="fill:none;stroke:#ffbe03;stroke-width:1;stroke-linecap:butt;stroke-linejoin:miter;stroke-miterlimit:4;stroke-dasharray:none;stroke-opacity:1"
       d="m 92.982437,100.0782 c 6.121084,2.17699 13.025043,1.04438 19.143163,0.20046"
       id="path863-4-9-8-7"
       inkscape:connector-curvature="0"
       sodipodi:nodetypes="cc" />
    <path
       style="fill:none;stroke:#f9ba0a;stroke-width:1;stroke-linecap:butt;stroke-linejoin:miter;stroke-miterlimit:4;stroke-dasharray:none;stroke-opacity:1"
       d="m 97.092634,77.632068 c -2.417039,7.99814 -2.839484,16.303137 -1.984375,24.804682"
       id="path925"
       inkscape:connector-curvature="0"
       sodipodi:nodetypes="cc" />
    <path
       style="fill:none;stroke:#f9ba0a;stroke-width:1;stroke-linecap:butt;stroke-linejoin:miter;stroke-miterlimit:4;stroke-dasharray:none;stroke-opacity:1"
       d="M 99.668431,75.907606 C 99.18852,84.047487 98.52984,95.612525 98.487256,103.87784"
       id="path925-7"
       inkscape:connector-curvature="0"
       sodipodi:nodetypes="cc" />
    <path
       style="fill:none;stroke:#f9ba0a;stroke-width:1;stroke-linecap:butt;stroke-linejoin:miter;stroke-miterlimit:4;stroke-dasharray:none;stroke-opacity:1"
       d="m 103.02256,75.566625 c -0.47991,8.139881 -0.99684,20.69711 -1.03943,28.962425"
       id="path925-7-7"
       inkscape:connector-curvature="0"
       sodipodi:nodetypes="cc" />
    <path
       style="fill:none;stroke:#ffbe03;stroke-width:1;stroke-linecap:butt;stroke-linejoin:miter;stroke-miterlimit:4;stroke-dasharray:none;stroke-opacity:1"
       d="m 108.14647,77.480076 c 2.41704,7.99814 2.83948,16.303129 1.98437,24.804674"
       id="path925-4"
       inkscape:connector-curvature="0"
       sodipodi:nodetypes="cc" />
    <path
       style="fill:none;stroke:#ffbe03;stroke-width:1;stroke-linecap:butt;stroke-linejoin:miter;stroke-miterlimit:4;stroke-dasharray:none;stroke-opacity:1"
       d="m 105.57067,75.755614 c 0.47991,8.139881 1.13859,19.704911 1.18118,27.970226"
       id="path925-7-6"
       inkscape:connector-curvature="0"
       sodipodi:nodetypes="cc" />
    <path
       style="fill:none;stroke:#ffbe03;stroke-width:1;stroke-linecap:butt;stroke-linejoin:miter;stroke-miterlimit:4;stroke-dasharray:none;stroke-opacity:1"
       d="m 96.5612,77.695443 c 6.44203,1.180624 5.67169,1.449911 11.58527,-0.215367"
       id="path863-1"
       inkscape:connector-curvature="0"
       sodipodi:nodetypes="cc" />
    <path
       style="fill:#00ffff;stroke:none;stroke-width:1;stroke-linecap:butt;stroke-linejoin:miter;stroke-miterlimit:4;stroke-dasharray:none;stroke-opacity:1"
       d="m 77.888481,96.826985 c -0.386444,-5.754467 2.789465,-9.47472 6.99256,-8.882437 -4.223533,3.864224 -1.094494,6.534517 3.212798,8.976937 0.05218,-6.999886 4.860143,-8.718023 8.126489,-8.835197 -2.745416,5.840187 1.182287,6.880407 5.480652,7.654017 -1.06947,-4.198764 -0.18853,-7.097245 4.77195,-7.276042 -1.82961,4.371238 1.45365,6.598362 7.41778,7.701262 -1.92377,-5.90028 3.57418,-6.357962 9.02418,-6.850814 -3.22043,4.570754 1.01009,5.588884 4.63021,6.898064 l 0.28348,20.524105 H 77.888481 Z"
       id="path990"
       inkscape:connector-curvature="0"
       sodipodi:nodetypes="cccccccccccc" />
    <g
       aria-label="Flowting"
       style="font-style:normal;font-variant:normal;font-weight:bold;font-stretch:normal;font-size:10.58333302px;line-height:1.25;font-family:Arial;-inkscape-font-specification:'Arial, Bold';font-variant-ligatures:normal;font-variant-caps:normal;font-variant-numeric:normal;font-feature-settings:normal;text-align:start;letter-spacing:0px;word-spacing:0px;writing-mode:lr-tb;text-anchor:start;fill:#000000;fill-opacity:1;stroke:none;stroke-width:0.26458332"
       id="text1053"
       transform="translate(2.6458333,-6.8980655)">
      <path
         d="m 77.037005,112.49093 v -7.57577 h 5.193481 v 1.28158 h -3.663859 v 1.79317 h 3.162598 v 1.28158 h -3.162598 v 3.21944 z"
         style="font-style:normal;font-variant:normal;font-weight:bold;font-stretch:normal;font-size:10.58333302px;font-family:Arial;-inkscape-font-specification:'Arial, Bold';font-variant-ligatures:normal;font-variant-caps:normal;font-variant-numeric:normal;font-feature-settings:normal;text-align:start;writing-mode:lr-tb;text-anchor:start;stroke-width:0.26458332"
         id="path1063"
         inkscape:connector-curvature="0" />
      <path
         d="m 82.456846,112.13724 2.116581,-7.27409 1.394282,0.4057 -2.116581,7.27409 z"
         style="font-style:normal;font-variant:normal;font-weight:bold;font-stretch:normal;font-size:10.58333302px;font-family:Arial;-inkscape-font-specification:'Arial, Bold';font-variant-ligatures:normal;font-variant-caps:normal;font-variant-numeric:normal;font-feature-settings:normal;text-align:start;writing-mode:lr-tb;text-anchor:start;stroke-width:0.26458332"
         id="path1065"
         inkscape:connector-curvature="0" />
      <path
         d="m 86.085548,109.6694 q 0,-0.72347 0.356567,-1.40044 0.356568,-0.67696 1.007691,-1.03352 0.656291,-0.35657 1.462443,-0.35657 1.245402,0 2.041219,0.81132 0.795817,0.80615 0.795817,2.04122 0,1.2454 -0.806152,2.06705 -0.800985,0.81649 -2.020549,0.81649 -0.754476,0 -1.441772,-0.34106 -0.682129,-0.34107 -1.038697,-0.99736 -0.356567,-0.66146 -0.356567,-1.60713 z m 1.488281,0.0775 q 0,0.81649 0.387574,1.25057 0.387573,0.43408 0.956013,0.43408 0.568441,0 0.950847,-0.43408 0.387573,-0.43408 0.387573,-1.26091 0,-0.80615 -0.387573,-1.24023 -0.382406,-0.43408 -0.950847,-0.43408 -0.56844,0 -0.956013,0.43408 -0.387574,0.43408 -0.387574,1.25057 z"
         style="font-style:normal;font-variant:normal;font-weight:bold;font-stretch:normal;font-size:10.58333302px;font-family:Arial;-inkscape-font-specification:'Arial, Bold';font-variant-ligatures:normal;font-variant-caps:normal;font-variant-numeric:normal;font-feature-settings:normal;text-align:start;writing-mode:lr-tb;text-anchor:start;stroke-width:0.26458332"
         id="path1067"
         inkscape:connector-curvature="0" />
      <path
         d="M 93.914528,112.49093 92.1782,107.00289 h 1.410766 l 1.028361,3.59668 0.945679,-3.59668 h 1.400431 l 0.914673,3.59668 1.049032,-3.59668 h 1.431438 l -1.762168,5.48804 h -1.395263 l -0.945679,-3.5295 -0.930176,3.5295 z"
         style="font-style:normal;font-variant:normal;font-weight:bold;font-stretch:normal;font-size:10.58333302px;font-family:Arial;-inkscape-font-specification:'Arial, Bold';font-variant-ligatures:normal;font-variant-caps:normal;font-variant-numeric:normal;font-feature-settings:normal;text-align:start;writing-mode:lr-tb;text-anchor:start;stroke-width:0.26458332"
         id="path1069"
         inkscape:connector-curvature="0" />
      <path
         d="m 103.63486,107.00289 v 1.15755 h -0.99218 v 2.21175 q 0,0.6718 0.0258,0.78549 0.031,0.10852 0.1292,0.18086 0.10335,0.0724 0.24804,0.0724 0.20154,0 0.58395,-0.13953 l 0.12402,1.12655 q -0.50643,0.21704 -1.14722,0.21704 -0.39274,0 -0.70796,-0.12919 -0.31523,-0.13436 -0.46509,-0.34106 -0.1447,-0.21188 -0.20154,-0.56844 -0.0465,-0.25322 -0.0465,-1.0232 v -2.39262 h -0.66663 v -1.15755 h 0.66663 v -1.09037 l 1.45728,-0.84749 v 1.93786 z"
         style="font-style:normal;font-variant:normal;font-weight:bold;font-stretch:normal;font-size:10.58333302px;font-family:Arial;-inkscape-font-specification:'Arial, Bold';font-variant-ligatures:normal;font-variant-caps:normal;font-variant-numeric:normal;font-feature-settings:normal;text-align:start;writing-mode:lr-tb;text-anchor:start;stroke-width:0.26458332"
         id="path1071"
         inkscape:connector-curvature="0" />
      <path
         d="m 104.65289,106.25875 v -1.34359 h 1.45211 v 1.34359 z m 0,6.23218 v -5.48804 h 1.45211 v 5.48804 z"
         style="font-style:normal;font-variant:normal;font-weight:bold;font-stretch:normal;font-size:10.58333302px;font-family:Arial;-inkscape-font-specification:'Arial, Bold';font-variant-ligatures:normal;font-variant-caps:normal;font-variant-numeric:normal;font-feature-settings:normal;text-align:start;writing-mode:lr-tb;text-anchor:start;stroke-width:0.26458332"
         id="path1073"
         inkscape:connector-curvature="0" />
      <path
         d="m 112.51804,117.63522 -1.31775,-0.23772 -0.0723,-7.70743 c -0.006,-0.59253 -0.031,-0.97497 -0.093,-1.14722 -0.062,-0.1757 -0.16363,-0.31178 -0.30489,-0.40824 -0.13781,-0.0965 -0.30489,-0.1447 -0.50126,-0.1447 -0.25149,0 -0.47715,0.0689 -0.67696,0.20671 -0.19982,0.1378 -0.33763,0.32039 -0.41342,0.54777 -0.0724,0.22737 -0.10852,0.64767 -0.10852,1.2609 v 2.48564 h -1.4521 v -5.48804 h 1.34875 v 0.80615 c 0.47887,-0.62011 1.08176,-0.93017 1.80868,-0.93017 0.32039,0 0.61323,0.0586 0.8785,0.1757 0.26527,0.11369 0.46508,0.2601 0.59944,0.43925 0.13781,0.17915 0.23255,0.38241 0.28422,0.60978 0.0551,0.22737 0.0827,0.55293 0.0827,0.97668 z"
         style="font-style:normal;font-variant:normal;font-weight:bold;font-stretch:normal;font-size:10.58333302px;font-family:Arial;-inkscape-font-specification:'Arial, Bold';font-variant-ligatures:normal;font-variant-caps:normal;font-variant-numeric:normal;font-feature-settings:normal;text-align:start;writing-mode:lr-tb;text-anchor:start;stroke-width:0.26458332"
         id="path1075"
         inkscape:connector-curvature="0"
         sodipodi:nodetypes="ccsccsccscccccsccccc" />
      <path
         d="m 113.92364,112.85266 1.65881,0.20154 c 0.0275,0.19293 0.0913,0.32556 0.19121,0.39791 0.1378,0.10335 0.35484,0.15503 0.65112,0.15503 0.37896,0 0.66318,-0.0568 0.85266,-0.17053 0.12747,-0.0758 0.22393,-0.1981 0.28939,-0.36691 0.0448,-0.12057 0.0672,-0.34278 0.0672,-0.66662 v -0.80099 c -0.43409,0.59256 -0.98186,0.88884 -1.64331,0.88884 -0.73725,0 -1.3212,-0.31178 -1.75183,-0.93534 -0.33762,-0.49265 -0.50643,-1.10588 -0.50643,-1.83969 0,-0.91984 0.22049,-1.62264 0.66146,-2.10839 0.44441,-0.48576 0.99563,-0.72864 1.65364,-0.72864 0.67869,0 1.23852,0.298 1.67949,0.894 v -0.76998 h 1.35909 v 4.92477 c 0,0.64767 -0.0534,1.13171 -0.1602,1.4521 -0.1068,0.32039 -0.25666,0.57189 -0.44959,0.75448 -0.19292,0.18259 -0.4513,0.32556 -0.77514,0.42891 -0.32039,0.10335 -0.72692,0.15503 -1.21957,0.15503 -0.93017,0 -1.58991,-0.1602 -1.9792,-0.48059 -0.3893,-0.31695 -0.58395,-0.72002 -0.58395,-1.20923 0,-0.0482 0.002,-0.10677 0.005,-0.1757 z m 1.29708,-3.21944 c 0,0.58222 0.11197,1.00941 0.3359,1.28158 0.22737,0.26871 0.50642,0.40307 0.83715,0.40307 0.35485,0 0.65457,-0.1378 0.89917,-0.41341 0.24461,-0.27905 0.36691,-0.69074 0.36691,-1.23506 0,-0.56845 -0.11713,-0.99047 -0.3514,-1.26608 -0.23427,-0.27561 -0.53055,-0.41341 -0.88884,-0.41341 -0.34795,0 -0.63562,0.13608 -0.86299,0.40825 -0.22393,0.26871 -0.3359,0.6804 -0.3359,1.23506 z"
         style="font-style:normal;font-variant:normal;font-weight:bold;font-stretch:normal;font-size:10.58333302px;font-family:Arial;-inkscape-font-specification:'Arial, Bold';font-variant-ligatures:normal;font-variant-caps:normal;font-variant-numeric:normal;font-feature-settings:normal;text-align:start;writing-mode:lr-tb;text-anchor:start;stroke-width:0.26458332"
         id="path1077"
         inkscape:connector-curvature="0"
         sodipodi:nodetypes="cccsccscscscscccssscscsccscscssscs" />
    </g>
    <g
       aria-label="Ananas"
       style="font-style:normal;font-variant:normal;font-weight:bold;font-stretch:normal;font-size:10.58333302px;line-height:1.25;font-family:Arial;-inkscape-font-specification:'Arial, Bold';font-variant-ligatures:normal;font-variant-caps:normal;font-variant-numeric:normal;font-feature-settings:normal;text-align:start;letter-spacing:0px;word-spacing:0px;writing-mode:lr-tb;text-anchor:start;fill:#000000;fill-opacity:1;stroke:none;stroke-width:0.26458332"
       id="text1061"
       transform="translate(2.6458333,-6.8980655)">
      <path
         d="m 92.636362,120.35398 -1.608923,0.4245 -1.078574,-1.49515 -2.92804,0.77254 -0.165594,1.82341 -1.56895,0.41395 0.920433,-8.07786 1.563953,-0.41264 z m -3.487805,-2.17958 -1.726488,-2.45187 -0.272174,2.9792 z"
         style="stroke-width:0.26458332"
         id="path1080"
         inkscape:connector-curvature="0" />
      <path
         d="m 97.59389,121.44894 h -1.452108 v -2.80087 q 0,-0.88883 -0.09302,-1.14721 -0.09302,-0.26355 -0.304891,-0.40825 -0.206705,-0.14469 -0.501261,-0.14469 -0.377238,0 -0.676961,0.20671 -0.299724,0.2067 -0.413412,0.54777 -0.10852,0.34106 -0.10852,1.2609 v 2.48564 h -1.452108 v -5.48804 h 1.348755 v 0.80615 q 0.718302,-0.93017 1.808675,-0.93017 0.480591,0 0.878499,0.1757 0.397909,0.17053 0.599447,0.43925 0.206706,0.26871 0.28422,0.60978 0.08268,0.34106 0.08268,0.97668 z"
         style="stroke-width:0.26458332"
         id="path1082"
         inkscape:connector-curvature="0" />
      <path
         d="m 100.15704,117.63522 -1.317748,-0.23772 q 0.222208,-0.79581 0.764811,-1.17822 0.542607,-0.3824 1.612307,-0.3824 0.97151,0 1.44694,0.23254 0.47542,0.22738 0.66662,0.58394 0.19637,0.3514 0.19637,1.29708 l -0.0155,1.69499 q 0,0.72347 0.0672,1.0697 0.0724,0.34107 0.26355,0.73381 h -1.4366 q -0.0569,-0.1447 -0.13953,-0.42892 -0.0362,-0.12919 -0.0517,-0.17053 -0.37207,0.36173 -0.79581,0.5426 -0.42375,0.18087 -0.90434,0.18087 -0.847496,0 -1.338422,-0.45992 -0.485758,-0.45992 -0.485758,-1.16272 0,-0.46509 0.222209,-0.82682 0.222208,-0.36691 0.620117,-0.55811 0.403076,-0.19637 1.157554,-0.34106 1.01802,-0.19121 1.41076,-0.35657 v -0.14469 q 0,-0.41858 -0.2067,-0.59428 -0.20671,-0.18087 -0.78032,-0.18087 -0.38757,0 -0.60461,0.15503 -0.21704,0.14986 -0.3514,0.53227 z m 1.94303,1.17822 q -0.27905,0.093 -0.88366,0.22221 -0.60462,0.12919 -0.79065,0.25321 -0.28422,0.20154 -0.28422,0.5116 0,0.30489 0.22737,0.5271 0.22738,0.22221 0.57878,0.22221 0.39274,0 0.74931,-0.25839 0.26355,-0.19637 0.34623,-0.48059 0.0568,-0.18603 0.0568,-0.70796 z"
         style="stroke-width:0.26458332"
         id="path1084"
         inkscape:connector-curvature="0" />
      <path
         d="m 109.95489,121.44894 h -1.45211 v -2.80087 q 0,-0.88883 -0.093,-1.14721 -0.093,-0.26355 -0.3049,-0.40825 -0.2067,-0.14469 -0.50126,-0.14469 -0.37723,0 -0.67696,0.20671 -0.29972,0.2067 -0.41341,0.54777 -0.10852,0.34106 -0.10852,1.2609 v 2.48564 h -1.45211 v -5.48804 h 1.34876 v 0.80615 q 0.7183,-0.93017 1.80867,-0.93017 0.48059,0 0.8785,0.1757 0.39791,0.17053 0.59945,0.43925 0.2067,0.26871 0.28422,0.60978 0.0827,0.34106 0.0827,0.97668 z"
         style="stroke-width:0.26458332"
         id="path1086"
         inkscape:connector-curvature="0" />
      <path
         d="m 112.51804,117.63522 -1.31775,-0.23772 q 0.22221,-0.79581 0.76482,-1.17822 0.5426,-0.3824 1.6123,-0.3824 0.97152,0 1.44694,0.23254 0.47542,0.22738 0.66663,0.58394 0.19637,0.3514 0.19637,1.29708 l -0.0155,1.69499 q 0,0.72347 0.0672,1.0697 0.0724,0.34107 0.26355,0.73381 h -1.4366 q -0.0568,-0.1447 -0.13953,-0.42892 -0.0362,-0.12919 -0.0517,-0.17053 -0.37207,0.36173 -0.79582,0.5426 -0.42375,0.18087 -0.90434,0.18087 -0.84749,0 -1.33842,-0.45992 -0.48576,-0.45992 -0.48576,-1.16272 0,-0.46509 0.22221,-0.82682 0.22221,-0.36691 0.62012,-0.55811 0.40307,-0.19637 1.15755,-0.34106 1.01803,-0.19121 1.41077,-0.35657 v -0.14469 q 0,-0.41858 -0.20671,-0.59428 -0.2067,-0.18087 -0.78031,-0.18087 -0.38758,0 -0.60462,0.15503 -0.21704,0.14986 -0.3514,0.53227 z m 1.94304,1.17822 q -0.27906,0.093 -0.88367,0.22221 -0.60461,0.12919 -0.79065,0.25321 -0.28422,0.20154 -0.28422,0.5116 0,0.30489 0.22738,0.5271 0.22737,0.22221 0.57877,0.22221 0.39274,0 0.74931,-0.25839 0.26355,-0.19637 0.34623,-0.48059 0.0568,-0.18603 0.0568,-0.70796 z"
         style="stroke-width:0.26458332"
         id="path1088"
         inkscape:connector-curvature="0" />
      <path
         d="m 117.0995,120.37157 1.38347,-0.50894 q 0.1758,0.39662 0.49871,0.55755 0.32186,0.15587 0.82314,0.0536 0.55191,-0.11256 0.78909,-0.3719 0.15844,-0.17997 0.1099,-0.41796 -0.033,-0.16203 -0.156,-0.24771 -0.12698,-0.0796 -0.51417,-0.0903 -1.79901,-0.0287 -2.3238,-0.24863 -0.7268,-0.30533 -0.88479,-1.08003 -0.14251,-0.69876 0.31234,-1.28728 0.45485,-0.58851 1.61437,-0.82499 1.10383,-0.22511 1.71387,0.0249 0.61003,0.25004 0.9561,0.91255 l -1.2912,0.52176 q -0.15015,-0.29638 -0.42722,-0.41391 -0.27206,-0.11856 -0.71764,-0.0277 -0.56204,0.11462 -0.77308,0.32116 -0.1393,0.14444 -0.10316,0.32165 0.031,0.1519 0.19443,0.22932 0.22133,0.10254 1.4082,0.12946 1.19193,0.0259 1.71899,0.30868 0.52303,0.28888 0.66141,0.96738 0.15076,0.73925 -0.35855,1.3969 -0.50931,0.65764 -1.71946,0.90444 -1.09876,0.22408 -1.83269,-0.0904 -0.72887,-0.31547 -1.08226,-1.03977 z"
         style="stroke-width:0.26458332"
         id="path1090"
         inkscape:connector-curvature="0" />
    </g>
    <path
       style="fill:#00e13c;fill-opacity:1;stroke:none;stroke-width:3.77952766;stroke-linecap:butt;stroke-linejoin:miter;stroke-miterlimit:4;stroke-dasharray:none;stroke-opacity:1"
       d="M 58.554688 1.890625 C 39.904373 1.9225996 21.594959 11.134993 17.628906 30.361328 C 47.001705 17.532213 65.256828 27.522945 76.556641 51.791016 C 45.403117 35.422456 21.403053 43.640516 5.4863281 79.648438 C 26.871221 64.451505 44.896691 57.189544 66.777344 75.462891 C 74.445118 65.624365 84.486314 59.648439 95.486328 59.648438 C 108.42892 59.648438 120.047 67.912044 128.02734 81.021484 C 134.73924 83.232578 151.54529 86.889778 166.95117 96.660156 C 157.42907 73.308186 147.57971 53.592003 120.84375 51.433594 C 128.53747 39.509362 157.4818 33.914715 179.46875 32.757812 C 158.95204 5.8164934 119.43255 8.1340292 99.101562 22.677734 C 91.733227 8.9815858 75.010847 1.8624121 58.554688 1.890625 z "
       transform="matrix(0.26458333,0,0,0.26458333,77.356552,59.629654)"
       id="path858-3" />
    <ellipse
       style="fill:#000000;fill-opacity:1;stroke:#000000;stroke-width:0.59259433;stroke-linecap:butt;stroke-linejoin:round;stroke-miterlimit:4;stroke-dasharray:none;stroke-opacity:1"
       id="path1030"
       cx="98.206398"
       cy="81.026901"
       rx="0.72342014"
       ry="0.67617303" />
    <ellipse
       style="fill:#000000;fill-opacity:1;stroke:#000000;stroke-width:0.59259433;stroke-linecap:butt;stroke-linejoin:round;stroke-miterlimit:4;stroke-dasharray:none;stroke-opacity:1"
       id="path1030-5"
       cx="107.70306"
       cy="81.310402"
       rx="0.72342014"
       ry="0.67617303" />
    <path
       inkscape:transform-center-y="0.25347237"
       inkscape:transform-center-x="0.10086139"
       d="m 118.3816,65.529484 -2.38797,0.214635 -1.31742,2.003214 -0.94205,-2.204767 -2.31228,-0.633914 1.80575,-1.577255 -0.11164,-2.394994 2.05806,1.229969 2.24328,-0.846274 -0.5338,2.337419 z"
       inkscape:randomized="0"
       inkscape:rounded="0"
       inkscape:flatsided="false"
       sodipodi:arg2="1.0314459"
       sodipodi:arg1="0.4031274"
       sodipodi:r2="1.929654"
       sodipodi:r1="3.6734672"
       sodipodi:cy="64.088391"
       sodipodi:cx="115.0026"
       sodipodi:sides="5"
       id="path900"
       style="fill:#ffff00;fill-opacity:1;stroke:none;stroke-width:1;stroke-linecap:butt;stroke-linejoin:round;stroke-miterlimit:4;stroke-dasharray:none;stroke-opacity:1"
       sodipodi:type="star" />
  </g>
</svg>